<?xml version="1.0" encoding="utf-8"?>
<!-- Generator: Adobe Illustrator 23.0.1, SVG Export Plug-In . SVG Version: 6.00 Build 0)  -->
<svg version="1.1" id="Layer_1" xmlns="http://www.w3.org/2000/svg" xmlns:xlink="http://www.w3.org/1999/xlink" x="0px" y="0px"
	 viewBox="0 0 200 200" style="enable-background:new 0 0 200 200;" xml:space="preserve">
<style type="text/css">
	.st0{fill:url(#SVGID_1_);}
	.st1{fill:#FFFFFF;}
</style>
<g>
	<radialGradient id="SVGID_1_" cx="18.5625" cy="193.0625" r="211.396" gradientUnits="userSpaceOnUse">
		<stop  offset="0" style="stop-color:#FFD676"/>
		<stop  offset="0.2463" style="stop-color:#F2A454"/>
		<stop  offset="0.3793" style="stop-color:#F05C3C"/>
		<stop  offset="0.6995" style="stop-color:#C22F86"/>
		<stop  offset="0.9673" style="stop-color:#6666AD"/>
		<stop  offset="0.997" style="stop-color:#5C6CB2"/>
	</radialGradient>
	<path class="st0" d="M157.5,200h-115C19.03,200,0,180.97,0,157.5v-115C0,19.03,19.03,0,42.5,0h115C180.97,0,200,19.03,200,42.5v115
		C200,180.97,180.97,200,157.5,200z"/>
	<path class="st1" d="M100,39.03c19.86,0,22.21,0.08,30.05,0.43c7.25,0.33,11.19,1.54,13.81,2.56c3.47,1.35,5.95,2.96,8.55,5.56
		c2.6,2.6,4.21,5.08,5.56,8.55c1.02,2.62,2.23,6.56,2.56,13.81c0.36,7.84,0.43,10.19,0.43,30.05s-0.08,22.21-0.43,30.05
		c-0.33,7.25-1.54,11.19-2.56,13.81c-1.35,3.47-2.96,5.95-5.56,8.55c-2.6,2.6-5.08,4.21-8.55,5.56c-2.62,1.02-6.56,2.23-13.81,2.56
		c-7.84,0.36-10.19,0.43-30.05,0.43s-22.21-0.08-30.05-0.43c-7.25-0.33-11.19-1.54-13.81-2.56c-3.47-1.35-5.95-2.96-8.55-5.56
		c-2.6-2.6-4.21-5.08-5.56-8.55c-1.02-2.62-2.23-6.56-2.56-13.81c-0.36-7.84-0.43-10.19-0.43-30.05s0.08-22.21,0.43-30.05
		c0.33-7.25,1.54-11.19,2.56-13.81c1.35-3.47,2.96-5.95,5.56-8.55c2.6-2.6,5.08-4.21,8.55-5.56c2.62-1.02,6.56-2.23,13.81-2.56
		C77.79,39.1,80.14,39.03,100,39.03 M100,25.62c-20.2,0-22.73,0.09-30.66,0.45c-7.92,0.36-13.32,1.62-18.05,3.46
		c-4.89,1.9-9.04,4.44-13.17,8.58c-4.13,4.13-6.68,8.28-8.58,13.17c-1.84,4.73-3.1,10.14-3.46,18.05
		c-0.36,7.93-0.45,10.47-0.45,30.66c0,20.2,0.09,22.73,0.45,30.66c0.36,7.92,1.62,13.32,3.46,18.05c1.9,4.89,4.44,9.04,8.58,13.17
		c4.13,4.13,8.28,6.68,13.17,8.58c4.73,1.84,10.14,3.1,18.05,3.46c7.93,0.36,10.47,0.45,30.66,0.45s22.73-0.09,30.66-0.45
		c7.92-0.36,13.32-1.62,18.05-3.46c4.89-1.9,9.04-4.44,13.17-8.58c4.13-4.13,6.68-8.28,8.58-13.17c1.84-4.73,3.1-10.14,3.46-18.05
		c0.36-7.93,0.45-10.47,0.45-30.66s-0.09-22.73-0.45-30.66c-0.36-7.92-1.62-13.32-3.46-18.05c-1.9-4.89-4.44-9.04-8.58-13.17
		c-4.13-4.13-8.28-6.68-13.17-8.58c-4.73-1.84-10.14-3.1-18.05-3.46C122.73,25.71,120.2,25.62,100,25.62L100,25.62z"/>
	<path class="st1" d="M100,61.81c-21.09,0-38.19,17.1-38.19,38.19s17.1,38.19,38.19,38.19s38.19-17.1,38.19-38.19
		S121.09,61.81,100,61.81z M100,124.79c-13.69,0-24.79-11.1-24.79-24.79c0-13.69,11.1-24.79,24.79-24.79
		c13.69,0,24.79,11.1,24.79,24.79C124.79,113.69,113.69,124.79,100,124.79z"/>
	<circle class="st1" cx="139.7" cy="60.3" r="8.93"/>
</g>
</svg>
