<?xml version="1.0" encoding="utf-8"?>
<!-- Generator: Adobe Illustrator 23.0.1, SVG Export Plug-In . SVG Version: 6.00 Build 0)  -->
<svg version="1.1" id="Layer_1" xmlns="http://www.w3.org/2000/svg" xmlns:xlink="http://www.w3.org/1999/xlink" x="0px" y="0px"
	 viewBox="0 0 200 200" style="enable-background:new 0 0 200 200;" xml:space="preserve">
<style type="text/css">
	.st0{fill:#3C5A96;}
</style>
<path class="st0" d="M11.04,200C4.94,200,0,195.06,0,188.96V11.04C0,4.94,4.94,0,11.04,0h177.92C195.06,0,200,4.94,200,11.04v177.92
	c0,6.1-4.94,11.04-11.04,11.04H11.04z M138,200v-77.45h26l3.89-30.18H138V73.09c0-8.74,2.43-14.69,14.96-14.69l15.98-0.01v-27
	c-2.77-0.37-12.25-1.19-23.29-1.19c-23.04,0-38.82,14.07-38.82,39.9v22.26H80.76v30.18h26.06V200H138z"/>
</svg>
