<?xml version="1.0" encoding="utf-8"?>
<!-- Generator: Adobe Illustrator 23.0.1, SVG Export Plug-In . SVG Version: 6.00 Build 0)  -->
<svg version="1.1" id="Layer_1" xmlns="http://www.w3.org/2000/svg" xmlns:xlink="http://www.w3.org/1999/xlink" x="0px" y="0px"
	 viewBox="0 0 284.36 200" style="enable-background:new 0 0 284.36 200;" xml:space="preserve">
<style type="text/css">
	.st0{fill:url(#SVGID_1_);}
	.st1{fill:#FFFFFF;}
	.st2{opacity:0.12;fill-rule:evenodd;clip-rule:evenodd;fill:#420000;}
</style>
<g>
	<linearGradient id="SVGID_1_" gradientUnits="userSpaceOnUse" x1="142.1793" y1="0" x2="142.1793" y2="200">
		<stop  offset="0" style="stop-color:#E52D27"/>
		<stop  offset="1" style="stop-color:#BF171D"/>
	</linearGradient>
	<path class="st0" d="M281.52,43.15c0,0-2.78-19.6-11.3-28.22C259.4,3.6,247.28,3.54,241.72,2.88C201.93,0,142.24,0,142.24,0h-0.12
		c0,0-59.69,0-99.48,2.88C37.08,3.54,24.96,3.6,14.14,14.92c-8.53,8.63-11.3,28.22-11.3,28.22S0,66.16,0,89.17v21.57
		c0,23.01,2.84,46.02,2.84,46.02s2.77,19.6,11.3,28.22c10.82,11.33,25.03,10.97,31.35,12.15c22.75,2.18,96.68,2.86,96.68,2.86
		s59.75-0.09,99.54-2.97c5.56-0.66,17.68-0.72,28.49-12.04c8.53-8.63,11.3-28.22,11.3-28.22s2.84-23.01,2.84-46.02V89.17
		C284.36,66.16,281.52,43.15,281.52,43.15z"/>
	<path id="Triangle" class="st1" d="M112.81,136.88l76.83-39.81l-76.83-40.09V136.88z"/>
	<path id="The_Sharpness" class="st2" d="M112.81,56.99l67.38,44.99l9.45-4.91L112.81,56.99z"/>
</g>
</svg>
